<svg height="73" viewBox="0 0 73 73" width="73" xmlns="http://www.w3.org/2000/svg"><g fill="none"><rect fill="#fff" height="71" rx="14" stroke="#193c7e" stroke-width="2" width="71" x="1" y="1"/><g transform="translate(8 13)"><path d="m58 36.3415985v2.9240723c0 1.1677704-.9460754 2.1125183-2.1120758 2.1125183h-22.842102c-2.5098877 0-4.9153443-.9960786-6.6911163-2.7691955-3.0966493-3.0957642-9.2992402-9.2961426-21.72123724-21.7181397-1.24211124-1.2416687-1.66603097-3.4754334-.5500336-4.5914307l1.14520264-1.1438752 10.6311798-10.63250717c1.0469666-1.04652413 2.8802643-.21903995 2.6833496 1.36335751l-.1048736.8270416c-.4394074 3.47410586 1.9678192 6.97653193 5.4804229 7.97128286l7.1008759 1.2115785c.6677398.1150512 1.2540589.4668426 1.6589508.9509429.6911926.8248291 1.8443603 2.2470399 3.1165619 4.0051118.5606537.773941 1.1429901 1.6124878 1.7195739 2.4944 1.806305 2.7616729 2.5457307 4.3958435 2.7346803 4.7197571.6792449 1.1664429 1.9235686 1.8965759 3.2842712 1.8965759h4.08786c5.7322083 0 10.3785096 4.6463012 10.3785096 10.3785095z" fill="#91aee2"/><path d="m58 36.8858795v2.3797913c0 1.1677704-.9460754 2.1125183-2.1120758 2.1125183h-22.842102c-2.5098877 0-4.9153443-.9960786-6.6911163-2.7691955-3.0966493-3.0957642-9.2992402-9.2961426-21.72123724-21.7181397-1.24211124-1.2416687-1.66603097-3.4754334-.5500336-4.5914307l1.14520264-1.1438752c17.3630066 17.3638916 19.3865814 19.3817139 25.005951 25.000641.6885375.6911926 1.3058318.7305756 1.9501189.7305756.2270051 0 25.6148377-.0008851 25.8152924-.0008851z" fill="#6990d7"/><path d="m35.795105 16.852356-4.2396393 2.447937-.1734619.100006c-1.304947.7540283-2.9723054.306656-3.7258911-.998291-.7527008-1.3036193-.3062134-2.9718627.998291-3.7245636l3.7130584-2.1439361c.440735.3721466 2.396164 2.8935395 3.4276429 4.3188477z" fill="#2e5aac"/><path d="m40.2493592 24.0665131-3.1793977 1.8363952-.1739044.1000062c-1.3036194.7527007-2.9718628.3062133-3.7258911-.9982911-.7522583-1.3049468-.3048858-2.9723052.9987335-3.7258911l3.3457794-1.9319763c.2588654.3964843.5164032.8004913.7704011 1.2120209 1.2814941 2.0766753 1.7881622 3.2059478 1.9642792 3.5077362z" fill="#2e5aac"/><path d="m35.795105 16.852356-4.2396393 2.447937c-.3725891-.2296601-.6942901-.5509186-.9283753-.9566955-.7527008-1.3036195-.3066558-2.9718629.998291-3.7245637l1.7032014-.9832458c.6690674.8235016 1.5359344 1.9306487 2.4665222 3.216568z" fill="#4172cc"/><path d="m40.2493592 24.0665131-3.1793977 1.8363952c-.3730316-.2296601-.6947326-.551361-.9288178-.9566955-.7527007-1.304947-.3053283-2.9723054.9987336-3.7258911l1.1452027-.6615448c1.2814941 2.0766753 1.7881622 3.2059478 1.9642792 3.5077362z" fill="#4172cc"/><g fill="#91aee2" transform="translate(0 23.675781)"><path d="m3.14576718 7.80622861c0 .48277285.39117432.87394717.8735047.87394717h7.68940732c.4827729 0 .8739472-.39117432.8739472-.87394717 0-.48233027-.3911743-.87350458-.8739472-.87350458h-7.68940732c-.48233038 0-.8735047.39117431-.8735047.87350458z"/><path d="m16.8350982 16.8355408h-10.48559566c-.48233027 0-.87394706.3911742-.87394706.8739471 0 .4823304.39161679.8735047.87394706.8735047h10.48559566c.4823304 0 .8739472-.3911743.8739472-.8735047 0-.4827729-.3916168-.8739471-.8739472-.8739471z"/><path d="m23.6505585 17.7094879c0-.4827729-.3911743-.8739471-.8735047-.8739471h-2.4466095c-.4827728 0-.8739471.3911742-.8739471.8739471 0 .4823304.3911743.8735047.8739471.8735047h2.4466095c.4823304 0 .8735047-.3911743.8735047-.8735047z"/><path d="m7.57302851 12.0007324c0-.4827728-.39117421-.8739472-.87394706-.8739472h-5.82513428c-.48277285 0-.87394717.3911744-.87394717.8739472 0 .4823303.39117432.8735047.87394717.8735047h5.82513428c.48277285 0 .87394706-.3911744.87394706-.8735047z"/><path d="m29.4177246 21.0296021h-5.8251343c-.4827728 0-.8739471.3911743-.8739471.8739471 0 .4827729.3911743.8739471.8739471.8739471h5.8251343c.4823303 0 .8739472-.3911742.8739472-.8739471 0-.4827728-.3916169-.8739471-.8739472-.8739471z"/><path d="m2.38819882 1.80630487h4.19450382c.48233038 0 .87350458-.3911742.87350458-.87394705 0-.48233038-.3911742-.8735047-.87350458-.8735047h-4.19450382c-.48233026 0-.87350458.39117432-.87350458.8735047 0 .48277285.39117432.87394705.87350458.87394705z"/></g></g></g></svg>